<svg width="200" height="200" viewBox="0 0 200 200" fill="none" xmlns="http://www.w3.org/2000/svg">
<g clip-path="url(#clip0_2_38)">
<path d="M115.008 12.68L105.137 14.28V14.28L115.008 12.68ZM117.738 29.5219L107.867 31.1219C108.506 35.0694 111.437 38.2561 115.316 39.2243L117.738 29.5219ZM131.952 34.684L127.584 43.6796C131.176 45.424 135.462 44.8638 138.485 42.2548L131.952 34.684ZM144.859 23.5451L151.393 31.1158L151.393 31.1158L144.859 23.5451ZM147.452 23.5271L141.024 31.1876L141.024 31.1876L147.452 23.5271ZM167.7 40.5178L174.128 32.8574L174.128 32.8574L167.7 40.5178ZM168.133 43.0738L159.543 37.9544L159.543 37.9544L168.133 43.0738ZM159.411 57.7092L150.821 52.5898C148.774 56.0247 148.969 60.3487 151.319 63.5844L159.411 57.7092ZM167.002 70.8207L157.876 74.9104C159.508 78.5522 163.15 80.875 167.14 80.8197L167.002 70.8207ZM184.017 70.5852L184.155 80.5842H184.155L184.017 70.5852ZM186.014 72.2377L195.862 70.5012L195.862 70.5012L186.014 72.2377ZM190.604 98.2689L200.452 96.5325V96.5324L190.604 98.2689ZM189.292 100.505L186.002 91.0615L186.002 91.0615L189.292 100.505ZM173.213 106.107L169.923 96.6632C166.148 97.9783 163.519 101.415 163.238 105.403L173.213 106.107ZM170.594 121.036L160.976 118.297C159.882 122.137 161.178 126.26 164.272 128.784L170.594 121.036ZM183.776 131.79L177.455 139.538L177.455 139.538L183.776 131.79ZM184.244 134.339L175.583 129.339V129.339L184.244 134.339ZM171.027 157.231L179.688 162.231V162.231L171.027 157.231ZM168.585 158.101L165.035 167.449H165.035L168.585 158.101ZM152.647 152.048L156.196 142.7C152.465 141.283 148.249 142.22 145.47 145.085L152.647 152.048ZM141.057 161.77L135.449 153.491C132.143 155.73 130.486 159.721 131.234 163.643L141.057 161.77ZM144.25 178.52L134.427 180.393L134.427 180.393L144.25 178.52ZM142.969 180.774L146.39 190.171L142.969 180.774ZM118.131 189.815L114.711 180.418L114.71 180.418L118.131 189.815ZM115.701 188.911L106.972 193.791L106.972 193.791L115.701 188.911ZM107.365 173.999L116.093 169.12C114.148 165.641 110.324 163.649 106.358 164.05L107.365 173.999ZM92.2765 173.988L93.2983 164.04C89.3281 163.632 85.4954 165.624 83.5479 169.108L92.2765 173.988ZM83.9336 188.911L75.2049 184.032L75.2049 184.032L83.9336 188.911ZM81.5038 189.815L84.924 180.418L84.924 180.418L81.5038 189.815ZM56.6651 180.774L53.2449 190.171H53.2449L56.6651 180.774ZM55.3845 178.52L45.5614 176.648H45.5614L55.3845 178.52ZM58.5916 161.697L68.4147 163.57C69.1612 159.654 67.5107 155.669 64.2143 153.428L58.5916 161.697ZM47.077 152.014L54.2583 145.055C51.4792 142.188 47.2604 141.248 43.5271 142.666L47.077 152.014ZM31.0493 158.101L27.4993 148.752L27.4993 148.752L31.0493 158.101ZM28.6072 157.231L19.947 162.231L19.947 162.231L28.6072 157.231ZM15.3908 134.339L24.0511 129.339L24.0511 129.339L15.3908 134.339ZM15.8586 131.79L22.1799 139.538L22.1799 139.538L15.8586 131.79ZM29.1399 120.955L35.4612 128.704C38.5522 126.182 39.8489 122.065 38.7606 118.227L29.1399 120.955ZM26.5467 106.15L36.5215 105.44C36.238 101.455 33.6095 98.0211 29.8365 96.7067L26.5467 106.15ZM10.3422 100.505L13.6321 91.0615L13.632 91.0615L10.3422 100.505ZM9.03058 98.2689L18.8787 100.005L18.8787 100.005L9.03058 98.2689ZM13.6206 72.2377L23.4687 73.9742L13.6206 72.2377ZM15.6179 70.5852L15.4795 80.5842H15.4795L15.6179 70.5852ZM32.7538 70.8224L32.6154 80.8214C36.606 80.8766 40.2473 78.5538 41.8794 74.9118L32.7538 70.8224ZM40.2787 57.8016L48.3799 63.6642C50.7208 60.4294 50.913 56.1122 48.8689 52.6822L40.2787 57.8016ZM31.5016 43.0738L22.9114 48.1932L31.5016 43.0738ZM31.9341 40.5178L25.5062 32.8574L25.5062 32.8574L31.9341 40.5178ZM52.1828 23.5271L45.7549 15.8667L45.7549 15.8667L52.1828 23.5271ZM54.775 23.5451L61.3083 15.9743V15.9743L54.775 23.5451ZM67.7268 34.722L61.1935 42.2927C64.2201 44.9046 68.5115 45.4628 72.1056 43.7123L67.7268 34.722ZM81.8915 29.5538L84.3302 39.2518C88.2021 38.2782 91.1239 35.0948 91.7627 31.1538L81.8915 29.5538ZM84.6266 12.68L94.4978 14.28V14.28L84.6266 12.68ZM124.879 11.08C123.937 5.26948 118.92 1 113.034 1V21C109.109 21 105.765 18.1537 105.137 14.28L124.879 11.08ZM127.609 27.9219L124.879 11.08L105.137 14.28L107.867 31.1219L127.609 27.9219ZM136.32 25.6885C131.204 23.2043 125.795 21.226 120.159 19.8195L115.316 39.2243C119.593 40.2916 123.698 41.7928 127.584 43.6796L136.32 25.6885ZM138.326 15.9743L125.418 27.1133L138.485 42.2548L151.393 31.1158L138.326 15.9743ZM153.88 15.8667C149.37 12.0831 142.783 12.1286 138.326 15.9744L151.393 31.1158C148.422 33.6796 144.03 33.71 141.024 31.1876L153.88 15.8667ZM174.128 32.8574L153.88 15.8667L141.024 31.1876L161.273 48.1783L174.128 32.8574ZM176.723 48.1932C179.737 43.1367 178.637 36.641 174.128 32.8574L161.273 48.1783C158.266 45.6558 157.534 41.3254 159.543 37.9544L176.723 48.1932ZM168.001 62.8286L176.723 48.1932L159.543 37.9544L150.821 52.5898L168.001 62.8286ZM176.127 66.731C173.76 61.4495 170.863 56.4614 167.503 51.8341L151.319 63.5844C153.876 67.107 156.079 70.8998 157.876 74.9104L176.127 66.731ZM183.878 60.5861L166.863 60.8216L167.14 80.8197L184.155 80.5842L183.878 60.5861ZM195.862 70.5012C194.84 64.7044 189.764 60.5047 183.878 60.5861L184.155 80.5842C180.231 80.6386 176.847 77.8387 176.166 73.9743L195.862 70.5012ZM200.452 96.5324L195.862 70.5012L176.166 73.9742L180.756 100.005L200.452 96.5324ZM192.582 109.948C198.141 108.012 201.474 102.329 200.452 96.5325L180.756 100.005C180.074 96.1409 182.297 92.3525 186.002 91.0615L192.582 109.948ZM176.503 115.55L192.582 109.948L186.002 91.0615L169.923 96.6632L176.503 115.55ZM180.211 123.775C181.764 118.322 182.776 112.646 183.188 106.81L163.238 105.403C162.924 109.848 162.154 114.16 160.976 118.297L180.211 123.775ZM190.097 124.041L176.915 113.287L164.272 128.784L177.455 139.538L190.097 124.041ZM192.904 139.339C195.847 134.242 194.658 127.762 190.097 124.041L177.455 139.538C174.414 137.058 173.621 132.738 175.583 129.339L192.904 139.339ZM179.688 162.231L192.904 139.339L175.583 129.339L162.367 152.231L179.688 162.231ZM165.035 167.449C170.538 169.539 176.744 167.329 179.688 162.231L162.367 152.231C164.329 148.832 168.467 147.359 172.135 148.752L165.035 167.449ZM149.097 161.397L165.035 167.449L172.135 148.752L156.196 142.7L149.097 161.397ZM146.665 170.05C151.426 166.825 155.835 163.123 159.823 159.012L145.47 145.085C142.43 148.217 139.072 151.037 135.449 153.491L146.665 170.05ZM154.073 176.648L150.88 159.898L131.234 163.643L134.427 180.393L154.073 176.648ZM146.39 190.171C151.921 188.158 155.175 182.43 154.073 176.648L134.427 180.393C133.692 176.538 135.862 172.719 139.549 171.377L146.39 190.171ZM121.551 199.212L146.39 190.171L139.549 171.377L114.711 180.418L121.551 199.212ZM106.972 193.791C109.845 198.929 116.02 201.225 121.551 199.212L114.71 180.418C118.398 179.076 122.515 180.606 124.43 184.032L106.972 193.791ZM98.6359 178.879L106.972 193.791L124.43 184.032L116.093 169.12L98.6359 178.879ZM99.8782 184.376C102.742 184.376 105.575 184.231 108.371 183.949L106.358 164.05C104.23 164.265 102.069 164.376 99.8782 164.376V184.376ZM91.2546 183.935C94.0925 184.227 96.9696 184.376 99.8782 184.376V164.376C97.6533 164.376 95.4584 164.262 93.2983 164.04L91.2546 183.935ZM92.6622 193.791L101.005 178.867L83.5479 169.108L75.2049 184.032L92.6622 193.791ZM78.0836 199.212C83.6148 201.225 89.7899 198.929 92.6622 193.791L75.2049 184.032C77.1198 180.606 81.2366 179.076 84.924 180.418L78.0836 199.212ZM53.2449 190.171L78.0836 199.212L84.924 180.418L60.0853 171.377L53.2449 190.171ZM45.5614 176.648C44.4591 182.43 47.7136 188.158 53.2449 190.171L60.0853 171.377C63.7728 172.719 65.9425 176.538 65.2076 180.393L45.5614 176.648ZM48.7685 159.824L45.5614 176.648L65.2076 180.393L68.4147 163.57L48.7685 159.824ZM39.8958 158.974C43.86 163.064 48.24 166.751 52.9689 169.967L64.2143 153.428C60.6152 150.98 57.279 148.172 54.2583 145.055L39.8958 158.974ZM34.5992 167.449L50.627 161.363L43.5271 142.666L27.4993 148.752L34.5992 167.449ZM19.947 162.231C22.8901 167.328 29.0963 169.539 34.5992 167.449L27.4993 148.752C31.168 147.359 35.3054 148.832 37.2675 152.231L19.947 162.231ZM6.73058 139.339L19.947 162.231L37.2675 152.231L24.0511 129.339L6.73058 139.339ZM9.53743 124.041C4.9763 127.762 3.78743 134.242 6.73059 139.339L24.0511 129.339C26.0132 132.738 25.2206 137.058 22.1799 139.538L9.53743 124.041ZM22.8187 113.206L9.5374 124.041L22.1799 139.538L35.4612 128.704L22.8187 113.206ZM16.5719 106.86C16.9835 112.645 17.9853 118.274 19.5193 123.683L38.7606 118.227C37.5971 114.124 36.835 109.847 36.5215 105.44L16.5719 106.86ZM7.05241 109.948L23.2569 115.593L29.8365 96.7067L13.6321 91.0615L7.05241 109.948ZM-0.817492 96.5324C-1.83965 102.329 1.49379 108.012 7.05243 109.948L13.632 91.0615C17.3378 92.3525 19.5601 96.1408 18.8787 100.005L-0.817492 96.5324ZM3.77251 70.5012L-0.817493 96.5324L18.8787 100.005L23.4687 73.9742L3.77251 70.5012ZM15.7563 60.5861C9.87056 60.5047 4.79466 64.7043 3.77251 70.5012L23.4687 73.9742C22.7872 77.8387 19.4033 80.6385 15.4795 80.5842L15.7563 60.5861ZM32.8922 60.8233L15.7563 60.5861L15.4795 80.5842L32.6154 80.8214L32.8922 60.8233ZM32.1775 51.9389C28.8498 56.5373 25.9775 61.4906 23.6282 66.7329L41.8794 74.9118C43.6634 70.931 45.8467 67.1646 48.3799 63.6642L32.1775 51.9389ZM22.9114 48.1932L31.6885 62.9209L48.8689 52.6822L40.0919 37.9544L22.9114 48.1932ZM25.5062 32.8574C20.9971 36.641 19.898 43.1367 22.9114 48.1932L40.0919 37.9544C42.1008 41.3254 41.3681 45.6558 38.362 48.1783L25.5062 32.8574ZM45.7549 15.8667L25.5062 32.8574L38.362 48.1783L58.6107 31.1876L45.7549 15.8667ZM61.3083 15.9743C56.8519 12.1287 50.2641 12.0831 45.7549 15.8667L58.6107 31.1876C55.6046 33.71 51.2127 33.6796 48.2418 31.1158L61.3083 15.9743ZM74.2601 27.1512L61.3083 15.9743L48.2418 31.1158L61.1935 42.2927L74.2601 27.1512ZM79.4528 19.8557C73.8363 21.268 68.4462 23.2485 63.348 25.7316L72.1056 43.7123C75.9777 41.8264 80.0686 40.3235 84.3302 39.2518L79.4528 19.8557ZM74.7554 11.08L72.0204 27.9537L91.7627 31.1538L94.4978 14.28L74.7554 11.08ZM86.6008 1C80.7145 1 75.6972 5.26954 74.7554 11.08L94.4978 14.28C93.8699 18.1536 90.525 21 86.6008 21V1ZM113.034 1H86.6008V21H113.034V1ZM130.661 100.857C130.661 117.891 116.852 131.701 99.8172 131.701V151.701C127.898 151.701 150.661 128.937 150.661 100.857H130.661ZM99.8172 70.0128C116.852 70.0128 130.661 83.8221 130.661 100.857H150.661C150.661 72.7764 127.898 50.0128 99.8172 50.0128V70.0128ZM68.9732 100.857C68.9732 83.8221 82.7826 70.0128 99.8172 70.0128V50.0128C71.7369 50.0128 48.9732 72.7764 48.9732 100.857H68.9732ZM99.8172 131.701C82.7826 131.701 68.9732 117.891 68.9732 100.857H48.9732C48.9732 128.937 71.7369 151.701 99.8172 151.701V131.701Z" fill="#171616"/>
</g>
<defs>
<clipPath id="clip0_2_38">
<rect width="200" height="200" fill="white"/>
</clipPath>
</defs>
</svg>
